<?xml version="1.0" encoding="UTF-8" standalone="no"?>
<!-- Created with Inkscape (http://www.inkscape.org/) -->

<svg
   width="210mm"
   height="297mm"
   viewBox="0 0 210 297"
   version="1.1"
   id="svg5"
   xml:space="preserve"
   inkscape:export-filename="logo-black.png"
   inkscape:export-xdpi="42.760944"
   inkscape:export-ydpi="42.760944"
   inkscape:version="1.2.2 (732a01da63, 2022-12-09)"
   sodipodi:docname="NunuaTicket.svg"
   xmlns:inkscape="http://www.inkscape.org/namespaces/inkscape"
   xmlns:sodipodi="http://sodipodi.sourceforge.net/DTD/sodipodi-0.dtd"
   xmlns="http://www.w3.org/2000/svg"
   xmlns:svg="http://www.w3.org/2000/svg"><sodipodi:namedview
     id="namedview7"
     pagecolor="#ffffff"
     bordercolor="#000000"
     borderopacity="0.25"
     inkscape:showpageshadow="2"
     inkscape:pageopacity="0.0"
     inkscape:pagecheckerboard="0"
     inkscape:deskcolor="#d1d1d1"
     inkscape:document-units="mm"
     showgrid="false"
     inkscape:zoom="0.74201149"
     inkscape:cx="279.64526"
     inkscape:cy="624.6534"
     inkscape:window-width="1920"
     inkscape:window-height="1001"
     inkscape:window-x="-9"
     inkscape:window-y="-9"
     inkscape:window-maximized="1"
     inkscape:current-layer="layer1" /><defs
     id="defs2" /><g
     inkscape:label="Layer 1"
     inkscape:groupmode="layer"
     id="layer1"><g
       id="g422"
       transform="translate(-22.464275,0.35657579)"
       style="fill:#000000"><path
         style="fill:#000000;stroke-width:0.264583"
         d="m 103.92594,108.38824 c -0.0339,-3.23784 -0.0402,-6.48228 -0.0139,-7.20988 0.0262,-0.72761 0.0855,-7.692763 0.13182,-15.478133 0.0821,-13.817087 0.098,-14.191706 0.66345,-15.683254 1.0765,-2.839458 2.27976,-4.736751 4.29635,-6.774429 2.26416,-2.287846 3.56778,-3.139336 6.8415,-4.468704 2.18347,-0.886647 2.48918,-0.939016 6.152,-1.053888 2.98005,-0.09346 4.22849,-0.02503 5.50373,0.301675 6.83857,1.75196 11.44357,5.85247 13.70153,12.200477 l 0.75289,2.116667 0.0738,20.968226 0.0738,20.968223 h -19.05763 -19.05764 z"
         id="path276" /><path
         style="fill:#000000;stroke-width:0.264583"
         d="m 105.01763,171.2461 c -5.673812,-0.0513 -8.276972,-0.1661 -8.466672,-0.37351 -0.19063,-0.20844 -0.18541,-0.25018 0.0172,-0.13728 0.1601,0.0892 4.297522,0.17494 9.194272,0.19048 5.26988,0.0167 8.90319,0.12833 8.90319,0.27347 0,0.13487 -0.32742,0.21724 -0.7276,0.18304 -0.40018,-0.0342 -4.41435,-0.0955 -8.92036,-0.1362 z"
         id="path236" /><path
         style="fill:#000000;stroke-width:0.264583"
         d="m 112.54893,176.7412 c 0.3638,-0.30577 1.35232,-1.03599 2.19669,-1.62271 0.84438,-0.58671 1.64511,-1.35573 1.77939,-1.70892 0.27159,-0.71433 0.52576,-0.79701 0.99809,-0.32468 0.24694,0.24695 0.3175,0.24695 0.3175,0 0,-0.17462 -0.24805,-0.56554 -0.55122,-0.86871 -0.30317,-0.30317 -0.48786,-0.61456 -0.41044,-0.69199 0.0774,-0.0774 0.44088,0.20039 0.80767,0.61736 0.76518,0.86985 0.88785,0.69223 -1.78933,2.59091 -0.80577,0.57146 -1.4423,1.16677 -1.41451,1.32292 0.0278,0.15614 -0.16977,0.24616 -0.43904,0.20005 -0.34213,-0.0586 -0.42896,0.0211 -0.28831,0.26458 0.1107,0.19163 0.10755,0.26388 -0.007,0.16054 -0.11454,-0.10334 -0.58011,-0.007 -1.0346,0.21436 l -0.82635,0.40225 0.66145,-0.55596 z"
         id="path234" /><path
         style="fill:#000000;stroke-width:0.264583"
         d="m 109.63853,178.38979 c 1e-5,-0.10914 14.734,-0.19844 32.74219,-0.19844 h 32.74217 l 2.11666,-0.61896 c 2.46932,-0.72208 6.31363,-2.54855 8.20209,-3.89688 2.53445,-1.80955 5.93224,-5.57522 5.48124,-6.07468 -0.10427,-0.11547 -0.0477,-0.12859 0.12571,-0.0292 0.55436,0.31786 4.04449,-7.40074 3.64136,-8.05303 -0.0833,-0.13475 -0.0459,-0.245 0.0831,-0.245 0.34847,0 0.88128,-3.24253 0.68998,-4.19903 -0.0911,-0.45543 -0.0596,-0.82805 0.0701,-0.82805 0.13624,0 0.21238,-8.23385 0.18044,-19.51302 -0.0573,-20.25585 -0.084,-21.76198 -0.38436,-21.76198 -0.0994,0 -0.1184,-0.23812 -0.0423,-0.52916 0.0831,-0.31792 0.008,-0.52917 -0.18792,-0.52917 -0.19604,0 -0.27106,-0.21125 -0.18792,-0.52917 0.0761,-0.29104 0.0252,-0.52916 -0.11303,-0.52916 -0.13828,0 -0.22008,-0.14883 -0.18179,-0.33073 0.0383,-0.1819 -0.14817,-0.65724 -0.41437,-1.05629 -0.26619,-0.39906 -0.41273,-0.91126 -0.32564,-1.13822 0.10283,-0.26797 0.052,-0.34695 -0.14488,-0.22526 -0.20625,0.12747 -0.25548,0.005 -0.15393,-0.3835 0.0966,-0.36946 0.0488,-0.50878 -0.13558,-0.39484 -0.17719,0.10951 -0.22418,0.0179 -0.12432,-0.24232 0.0951,-0.24785 -0.006,-0.48214 -0.24707,-0.5748 -0.22794,-0.0875 -0.34119,-0.32955 -0.25691,-0.54917 0.0834,-0.21728 -0.11122,-0.6474 -0.43557,-0.96272 -0.32245,-0.31349 -0.40769,-0.4826 -0.18941,-0.37581 0.21829,0.10679 0.0992,-0.0646 -0.26458,-0.38093 -0.3638,-0.31629 -0.49427,-0.48684 -0.28992,-0.379 0.20434,0.10785 0.009,-0.3283 -0.43357,-0.96923 -1.10505,-1.59948 -2.96793,-3.678847 -3.29581,-3.678847 -0.14859,0 -0.5043,-0.29766 -0.79047,-0.66146 -0.28617,-0.3638 -0.69025,-0.66146 -0.89797,-0.66146 -0.20772,0 -0.37768,-0.0964 -0.37768,-0.2143 0,-0.25712 -3.13953,-2.35908 -3.7032,-2.47935 -0.21776,-0.0465 -0.52197,-0.24445 -0.67603,-0.43998 -0.15406,-0.19553 -0.58955,-0.37412 -0.96776,-0.39687 -0.3782,-0.0228 -0.62,-0.1509 -0.53734,-0.28477 0.0827,-0.13387 -0.0478,-0.16737 -0.28997,-0.0744 -0.24215,0.0929 -0.44028,0.0665 -0.44028,-0.0587 0,-0.23922 -1.28321,-0.6774 -1.69554,-0.57898 -0.13219,0.0316 -0.31481,-0.0631 -0.40583,-0.2104 -0.30871,-0.4995 -5.93854,-0.81805 -14.46131,-0.81827 -4.67109,-1.3e-4 -9.40383,0.0768 -10.51719,0.17089 l -2.02429,0.17111 v 4.26066 4.260657 l 8.26823,0.0567 c 7.04024,0.0483 9.21875,0.13159 12.10468,0.46299 0.21828,0.025 0.73205,0.18628 1.14171,0.35827 0.40965,0.17198 0.85509,0.31269 0.98985,0.31269 0.6962,0 4.26331,1.82434 5.47524,2.80022 3.15326,2.53909 5.83375,6.83305 6.84056,10.95811 0.42708,1.74982 0.48938,3.3292 0.52707,13.36146 0.0235,6.2574 -0.0511,14.41318 -0.16574,18.12396 -0.21937,7.09876 -0.31321,7.67336 -1.83175,11.21598 -0.63545,1.48242 -2.25933,3.87404 -3.63155,5.34846 -2.21644,2.38151 -6.13208,4.41855 -9.89593,5.14817 -2.47002,0.47881 -3.94727,0.5124 -22.54373,0.5126 -26.7684,2.6e-4 -56.025322,0.30005 -55.857062,0.5723 0.0752,0.12168 0.80439,0.22124 1.62042,0.22124 1.83539,0 1.65475,0.32117 -0.21398,0.38047 -1.19619,0.0379 -1.39491,-0.0327 -1.64663,-0.58511 l -0.28626,-0.62827 -5.3162,0.1872 c -7.95946,0.28028 -11.60595,-0.39989 -15.43972,-2.87995 -4.23946,-2.74249 -7.17603,-6.47268 -8.86934,-11.26631 -0.76278,-2.15939 -0.80385,-2.48641 -0.81724,-6.50699 l -0.0141,-4.23333 -1.32291,1.27873 c -2.54304,2.45811 -4.45074,3.35147 -7.15676,3.35147 -1.38608,0 -1.0912,-0.42161 0.34375,-0.49147 2.80324,-0.13648 4.47752,-1.00211 6.82596,-3.5291 1.19566,-1.28656 1.34329,-1.57758 1.40674,-2.77289 0.0729,-1.37349 -0.36544,-2.20237 -1.16469,-2.20237 -0.20277,0 -0.50259,-0.25024 -0.66627,-0.55608 -0.25163,-0.47017 -0.18153,-0.6833 0.45371,-1.37948 0.41323,-0.45287 0.91691,-0.95743 1.1193,-1.12125 0.30332,-0.24552 0.33671,-1.24682 0.18998,-5.69813 -0.25802,-7.82754 -0.0628,-6.97347 -1.61629,-7.06979 -0.72761,-0.0451 -1.4022,-0.16417 -1.49909,-0.26458 -0.29424,-0.30493 -0.37224,-4.10104 -0.0862,-4.19348 0.15265,-0.0493 0.29294,0.71353 0.33555,1.82464 0.0403,1.05017 0.17293,2.0091 0.29479,2.13096 0.12185,0.12185 0.74374,0.18415 1.38198,0.13843 l 1.16042,-0.0831 0.0791,-1.36271 c 0.0744,-1.28179 0.0351,-1.37875 -0.66146,-1.63276 -0.63985,-0.23334 -0.66217,-0.27289 -0.16424,-0.29094 0.50393,-0.0182 0.59559,-0.21186 0.73012,-1.54224 0.3335,-3.29796 0.70647,-4.78161 1.71597,-6.82598 2.73756,-5.54391 7.91656,-9.9044 12.98535,-10.9331 0.89418,-0.18147 5.61673,-0.31983 12.2552,-0.35905 5.94023,-0.0351 10.9398,-0.14994 11.11016,-0.25522 0.31452,-0.19439 0.32829,-7.458197 0.0161,-8.496727 -0.13659,-0.45437 -0.82952,-0.47364 -14.07788,-0.39142 l -13.93423,0.0865 -2.24895,0.75357 c -10.29207,3.44862 -17.01983,11.541857 -17.95443,21.598487 -0.14171,1.52484 -0.26636,11.34494 -0.277,21.82244 l -0.0193,19.05 0.76808,3.0996 c 1.32507,5.3473 3.35487,8.64345 7.97097,12.94383 3.14741,2.93215 3.83661,3.45175 6.21797,4.68789 1.47069,0.76343 4.66979,1.71909 6.60104,1.97193 1.507,0.1973 37.967712,0.18267 37.967732,-0.0152 z"
         id="path232" /><path
         style="fill:#000000;stroke-width:0.264583"
         d="m 72.464558,178.91612 c -1.14201,-0.0744 -4.05288,-0.71507 -5.92187,-1.30332 -1.97976,-0.62311 -4.71761,-2.40887 -7.35878,-4.79975 -4.72474,-4.27699 -7.28859,-8.13826 -8.55086,-12.87795 -0.85939,-3.2269 -1.10593,-10.63779 -0.98581,-29.63333 0.10058,-15.90688 0.13083,-16.76549 0.66171,-18.78542 2.40608,-9.15475 8.641,-15.749107 17.78998,-18.815557 l 2.24896,-0.75377 14.47103,-0.0855 14.47104,-0.0855 0.0811,3.52017 c 0.0446,1.93609 0.0215,4.20874 -0.0512,5.050337 l -0.1323,1.53017 -10.84791,0.12472 c -5.96636,0.0686 -11.44323,0.19169 -12.17083,0.27354 -4.92282,0.5538 -10.60178,5.12553 -13.45156,10.82889 -1.54951,3.1011 -1.63203,3.89582 -1.55361,14.96318 l 0.0704,9.9361 -0.93314,0.77805 c -1.1413,0.9516 -1.1763,1.34701 -0.13939,1.57476 0.43656,0.0959 0.81623,0.3137 0.84372,0.48404 0.0275,0.17034 0.0572,3.04814 0.0661,6.39512 0.0157,5.90293 0.0379,6.15104 0.74119,8.2737 0.89386,2.69789 1.37283,3.6385 3.09867,6.08513 2.29169,3.24884 6.58585,6.20449 10.72839,7.3843 2.13033,0.60673 9.06416,0.65345 55.827082,0.37615 41.69984,-0.24728 39.02002,-0.10498 43.27139,-2.29768 5.36284,-2.76596 8.75896,-7.55991 9.79692,-13.82931 0.13607,-0.8219 0.25105,-8.95363 0.25551,-18.0705 0.009,-18.41122 -0.0126,-18.68879 -1.73947,-22.32921 -2.68027,-5.65034 -5.96942,-8.50197 -11.76456,-10.19963 -1.84626,-0.54085 -2.67032,-0.58969 -11.8401,-0.70171 l -9.85573,-0.1204 v -5.018337 -5.01833 l 13.03073,0.10827 c 8.91655,0.0741 13.39483,0.20748 14.18394,0.42248 5.28145,1.43898 10.11026,4.51822 13.72031,8.749177 2.81678,3.30124 4.95788,7.99286 5.63277,12.34261 0.19486,1.25597 0.25958,8.55233 0.20056,22.61131 l -0.0872,20.75698 -0.61665,2.24896 c -2.80022,10.21256 -9.58372,17.05115 -19.15989,19.31546 -2.09646,0.49572 -3.78603,0.51457 -52.5692,0.58638 -27.721722,0.0408 -50.879372,0.0432 -51.461462,0.005 z"
         id="path230" /><g
         aria-label="Nunua"
         id="text334"
         style="font-size:32.7728px;fill:#000000;stroke-width:0.384055"><path
           d="m 78.664849,127.1637 1.104162,-3.02444 1.520223,-3.85657 q 0.784115,-2.0963 1.408206,-3.31248 0.448066,-0.86413 0.448066,-1.21618 0,-0.46407 -0.752111,-1.00815 -0.496072,-0.33605 -0.496072,-0.59208 0,-0.32005 0.992145,-0.6881 0.848124,-0.35206 1.936284,-0.60809 1.088159,-0.27204 1.760258,-0.27204 1.344197,0 2.032297,0.7201 0.800117,0.81612 1.968289,5.07275 0.48007,1.72825 1.056154,3.34449 0.592087,1.61623 0.976143,2.32034 0.112017,0.25603 0.592087,0.99214 0.528077,-1.68024 1.248183,-4.40064 1.056155,-4.28863 1.936283,-5.79285 0.27204,-0.48007 0.624092,-0.84813 0.656096,-0.60809 1.408206,-0.92813 0.768113,-0.32005 1.536225,-0.32005 0.464071,0 0.640091,0.24004 0.17603,0.24003 0.17603,0.86412 0,0.46407 -0.064,0.6881 -0.16002,0.83213 -0.56008,2.16032 -0.400061,1.31219 -1.136169,3.3925 -0.720106,2.0643 -1.808265,5.00873 l -0.240035,0.59209 q -0.128019,0.38405 -0.224033,0.62409 -1.936284,5.42479 -2.944431,7.04103 -0.208031,0.33605 -0.496073,0.62409 -0.496073,0.49607 -0.976143,0.49607 -1.23218,0 -2.656389,-2.62438 -2.59238,-4.70469 -4.064595,-9.66542 -0.304045,-0.92813 -0.464068,-1.74425 h -0.06401 l -1.936283,6.09689 q -0.032,0.16002 -0.128019,0.41606 -0.09601,0.24004 -0.160024,0.46407 -0.06401,0.17603 -0.160023,0.40006 -0.08001,0.20803 -0.144021,0.35205 -0.528077,1.60023 -0.864127,2.41635 -0.336049,0.80012 -0.672098,1.3282 -0.288042,0.49607 -0.848124,1.07216 -0.81612,0.75211 -1.808265,1.18417 -0.992146,0.43206 -1.968288,0.43206 -0.81612,0 -0.81612,-0.65609 0,-0.49608 0.720105,-1.71225 0.832122,-1.39221 1.872275,-3.82456 0.176025,-0.51208 0.496072,-1.24819 z"
           style="font-weight:bold;font-family:Forte;-inkscape-font-specification:'Forte Bold';fill:#000000"
           id="path424" /><path
           d="m 111.7897,129.75608 -0.27204,0.22404 q -0.08,0.048 -1.07216,0.81611 -1.92028,1.50423 -3.16846,2.38435 -1.24818,0.86413 -2.0803,1.28019 -0.83213,0.40006 -1.3442,0.40006 -0.86413,0 -1.39221,-0.7041 -0.51207,-0.72011 -0.51207,-1.85627 0,-1.92029 0.57608,-4.46466 0.57609,-2.56037 1.55223,-5.04074 1.07216,-2.7524 2.62439,-3.36049 0.54408,-0.24003 1.28018,-0.24003 1.00815,0 1.63224,0.62409 0.62409,0.62409 0.62409,1.64824 0,0.7041 -0.24003,1.48822 -0.24004,0.78411 -0.76811,1.87227 l -0.19203,0.46407 q -1.3762,2.91243 -1.3762,3.53652 0,0.36805 0.25603,0.36805 0.24004,0 0.6241,-0.33605 0.38405,-0.33605 1.18417,-1.23218 0.49607,-0.60809 1.4082,-1.52022 l 0.59209,-0.59209 0.51208,-0.54408 q 1.61623,-1.60023 2.64038,-2.30434 1.02415,-0.7201 1.69625,-0.7201 1.28019,0 1.28019,2.22432 0,0.46407 -0.11202,1.64825 -0.19203,2.30433 -0.19203,3.90457 0.016,0.32004 0.016,0.59208 0.016,0.25604 0.016,0.6721 0.11202,1.07216 0.16002,1.64824 0.11202,0.91214 0.11202,0.91214 0,0.48007 -0.86413,0.84812 -0.86412,0.36806 -2.00029,0.36806 -1.04015,0 -1.79226,-0.40006 -0.73611,-0.41606 -1.12017,-1.21618 -0.38405,-0.80012 -0.38405,-1.95229 0,-0.14402 0.032,-0.49607 0.032,-0.36805 0.064,-0.94414 z"
           style="font-weight:bold;font-family:Forte;-inkscape-font-specification:'Forte Bold';fill:#000000"
           id="path426" /><path
           d="m 126.1598,126.31558 0.96015,-1.12017 q 1.45621,-1.61623 2.30433,-2.40035 0.86413,-0.80011 1.53623,-1.15217 0.6881,-0.35205 1.3922,-0.35205 1.13617,0 1.60024,0.60809 0.46406,0.60809 0.46406,2.11231 0,0.62409 -0.12801,1.84027 -0.19203,1.61624 -0.19203,3.04045 0,1.60023 0.16002,2.59238 0.11202,0.60808 0.33605,1.21617 0.16002,0.57609 0.16002,0.78412 0,0.25604 -0.19202,0.40006 -0.49608,0.43206 -1.3122,0.75211 -0.81612,0.32004 -1.3762,0.32004 -0.91213,0 -1.66424,-0.62409 -0.73611,-0.62409 -1.15217,-1.72825 -0.40006,-1.10416 -0.40006,-2.49637 0,-0.92813 0.19203,-2.19232 l -0.064,-0.064 q -0.6881,0.76812 -1.12017,1.21618 -0.41606,0.44807 -0.78411,0.84813 -1.79226,2.0483 -3.04045,3.69654 -0.48007,0.64009 -0.88012,1.12016 -0.59209,0.59209 -1.3442,0.59209 -1.02415,0 -1.66425,-0.76811 -0.64009,-0.76812 -0.64009,-1.98429 0,-0.75212 0.17603,-1.84027 0.17602,-1.08816 0.46406,-2.32034 0.30405,-1.24819 0.70411,-2.56038 0.41606,-1.31219 0.89613,-2.49636 0.73611,-1.96829 1.79226,-3.07246 0.72011,-0.7201 1.74426,-0.7201 1.66424,0 1.66424,2.16032 0,1.58423 -0.65609,4.52866 z"
           style="font-weight:bold;font-family:Forte;-inkscape-font-specification:'Forte Bold';fill:#000000"
           id="path428" /><path
           d="m 145.8907,129.75608 -0.27204,0.22404 q -0.08,0.048 -1.07216,0.81611 -1.92028,1.50423 -3.16846,2.38435 -1.24818,0.86413 -2.08031,1.28019 -0.83212,0.40006 -1.34419,0.40006 -0.86413,0 -1.39221,-0.7041 -0.51207,-0.72011 -0.51207,-1.85627 0,-1.92029 0.57608,-4.46466 0.57609,-2.56037 1.55223,-5.04074 1.07216,-2.7524 2.62438,-3.36049 0.54408,-0.24003 1.28019,-0.24003 1.00815,0 1.63224,0.62409 0.62409,0.62409 0.62409,1.64824 0,0.7041 -0.24003,1.48822 -0.24004,0.78411 -0.76812,1.87227 l -0.19202,0.46407 q -1.37621,2.91243 -1.37621,3.53652 0,0.36805 0.25604,0.36805 0.24004,0 0.62409,-0.33605 0.38406,-0.33605 1.18418,-1.23218 0.49607,-0.60809 1.4082,-1.52022 l 0.59209,-0.59209 0.51207,-0.54408 q 1.61624,-1.60023 2.64039,-2.30434 1.02415,-0.7201 1.69625,-0.7201 1.28019,0 1.28019,2.22432 0,0.46407 -0.11202,1.64825 -0.19203,2.30433 -0.19203,3.90457 0.016,0.32004 0.016,0.59208 0.016,0.25604 0.016,0.6721 0.11201,1.07216 0.16002,1.64824 0.11202,0.91214 0.11202,0.91214 0,0.48007 -0.86413,0.84812 -0.86413,0.36806 -2.00029,0.36806 -1.04015,0 -1.79226,-0.40006 -0.73611,-0.41606 -1.12017,-1.21618 -0.38406,-0.80012 -0.38406,-1.95229 0,-0.14402 0.032,-0.49607 0.032,-0.36805 0.064,-0.94414 z"
           style="font-weight:bold;font-family:Forte;-inkscape-font-specification:'Forte Bold';fill:#000000"
           id="path430" /><path
           d="m 165.31754,126.4436 -0.30404,0.096 q -1.15217,0.32005 -1.66425,0.32005 -0.62409,0 -0.62409,-0.32005 0,-0.11201 0.25604,-0.59209 0.89613,-1.36019 0.89613,-2.56037 0,-0.6881 -0.24003,-1.24818 -0.24004,-0.57609 -0.52808,-0.57609 -0.25604,0 -0.78412,0.54408 -1.48821,1.61624 -2.36834,3.31249 -0.86413,1.69625 -0.86413,3.02444 0,0.88013 0.35205,1.45621 0.36806,0.57609 0.91214,0.57609 0.46406,0 1.72825,-0.99215 1.28019,-0.99214 2.86442,-2.62438 l 0.43206,-0.35205 z m -0.96014,3.66453 v 0.064 l -0.064,-0.064 q -1.48821,1.74426 -2.7364,2.86442 -1.23218,1.10417 -2.28833,1.66425 -1.04016,0.56008 -1.92028,0.56008 -1.79227,0 -2.96044,-1.20018 -1.16817,-1.20017 -1.16817,-3.04044 0,-1.13617 0.57609,-2.6884 0.57608,-1.55222 1.58423,-3.04044 1.68024,-2.43236 4.22462,-4.12861 2.62438,-1.74425 5.05674,-1.74425 2.0483,0 3.36049,0.84812 1.32819,0.83213 1.32819,2.11231 0,0.94414 -0.65609,2.0003 0.86412,0 1.08816,0.19202 0.22403,0.17603 0.22403,0.84813 0,-0.064 -0.08,0.65609 -0.096,1.58424 -0.096,2.96044 0,0.7201 0.016,1.08816 0.016,0.36805 0.064,0.84812 0.048,0.48007 0.096,0.76811 0.12802,0.75211 0.41606,1.48822 -0.96014,0.94414 -1.84027,1.39221 -0.88013,0.43206 -1.79226,0.43206 -2.46436,0 -2.46436,-4.12861 0,-0.48007 0.032,-0.75211 z"
           style="font-weight:bold;font-family:Forte;-inkscape-font-specification:'Forte Bold';fill:#000000"
           id="path432" /></g><g
         aria-label="Ticket"
         id="text334-0"
         style="font-size:32.7728px;fill:#000000;stroke-width:0.384055"><path
           d="m 95.211274,149.91771 -0.160023,0.6881 q -0.08001,0.35205 -0.144021,0.60809 -0.06401,0.24003 -0.112017,0.43206 -0.032,0.17603 -0.08001,0.36806 -1.152168,4.92872 -1.856271,6.1609 -0.320047,0.54408 -0.960141,0.97614 -2.016295,1.31219 -3.168464,1.31219 -0.800117,0 -1.360199,-0.57608 -0.54408,-0.59209 -0.54408,-1.45621 0,-1.56823 1.376201,-5.79285 0.416061,-1.3442 0.752111,-2.33634 0.352051,-0.99215 0.832122,-2.24033 0.496072,-1.24819 1.104161,-2.65639 0.624092,-1.40821 0.880129,-1.98429 -2.112309,0.30404 -4.064595,0.30404 -1.968289,0 -1.968289,-1.3762 0,-0.88013 1.280188,-2.24033 0.864127,-0.88013 1.600234,-1.21618 0.736108,-0.35205 1.776261,-0.35205 0.672098,0 1.840269,0.048 1.168171,0.032 3.248476,0.17603 l 0.448066,0.032 0.432063,0.048 q 1.760258,0.096 2.32034,0.22403 0.560082,0.12802 0.96014,0.49607 0.320047,0.36806 0.320047,0.84813 0,0.51207 -0.20803,1.05615 -0.192028,0.52808 -0.480071,0.78412 -0.400058,0.44806 -2.25633,0.75211 -0.160023,0 -0.336049,0.032 l -0.320047,0.064 q 0.384056,0.38406 0.384056,0.84813 0,0.44806 -0.448065,1.93628 -0.144022,0.36805 -0.688101,2.41635 l -0.240035,0.96014 z"
           style="font-weight:bold;font-family:Forte;-inkscape-font-specification:'Forte Bold';fill:#000000"
           id="path435" /><path
           d="m 101.45219,160.49526 q -0.72011,-0.048 -1.31219,-0.6561 -0.59209,-0.64009 -0.848128,-1.3762 -0.240035,-0.75211 -0.240035,-1.93628 0,-2.64039 0.976143,-5.95287 0.99215,-3.32849 2.24033,-4.81671 0.49607,-0.62409 1.3762,-0.62409 0.92814,0 1.48822,0.84812 0.57608,0.84813 0.57608,2.22433 0,2.0323 -0.59208,4.7687 -0.57609,2.7204 -1.63224,5.66483 -0.41606,1.18417 -1.02415,1.60023 -0.41606,0.25604 -0.97615,0.25604 z m 1.92028,-16.08236 q -1.50422,-0.048 -1.50422,-1.80826 0,-0.88013 0.43206,-2.0323 0.44807,-1.16817 1.00815,-1.72825 0.28804,-0.30405 0.57608,-0.43207 0.30405,-0.12801 0.76812,-0.12801 0.80011,0 1.16817,0.40005 0.38405,0.38406 0.38405,1.29619 0,1.13617 -0.40005,2.16032 -0.38406,1.00815 -1.04016,1.64824 -0.65609,0.62409 -1.34419,0.62409 z"
           style="font-weight:bold;font-family:Forte;-inkscape-font-specification:'Forte Bold';fill:#000000"
           id="path437" /><path
           d="m 116.06233,144.89297 q 1.21618,0.048 1.93628,0.70411 0.72011,0.65609 0.72011,1.76025 0,0.96015 -0.56008,1.93629 -0.54408,0.97614 -1.39221,1.60023 -0.83212,0.62409 -1.68024,0.62409 -0.49608,0 -0.49608,-0.35205 0,-0.12802 0.19203,-0.56008 0.62409,-1.05615 0.62409,-2.43236 0,-0.6881 -0.16002,-0.6881 -0.22403,0 -0.64009,0.57609 -0.41607,0.57608 -0.70411,1.3602 -0.49607,1.23218 -0.83212,2.62438 -0.32005,1.39221 -0.32005,2.35235 0,1.08816 0.32005,1.71225 0.33605,0.62409 0.92814,0.62409 0.54408,0 1.45621,-0.57609 0.91213,-0.57608 1.72825,-1.4242 0.33605,-0.43207 0.59209,-0.43207 0.38406,0 0.38406,0.43207 0,1.96828 -1.53623,3.56852 -1.05615,1.05615 -2.43236,1.71225 -1.36019,0.64009 -2.44835,0.64009 -1.90428,0 -3.16847,-1.20017 -1.26418,-1.20018 -1.26418,-3.02445 0,-1.82426 0.80011,-3.82456 0.81612,-2.01629 2.20833,-3.82456 1.4082,-1.80826 3.18446,-3.02444 1.28019,-0.86413 2.49637,-0.86413 z"
           style="font-weight:bold;font-family:Forte;-inkscape-font-specification:'Forte Bold';fill:#000000"
           id="path439" /><path
           d="m 135.13712,163.18365 q -2.24032,2.88042 -3.4085,2.88042 -0.84812,0 -1.79226,-0.67209 -0.92813,-0.6561 -1.74425,-1.79227 -0.81612,-1.12016 -1.29619,-2.43235 -0.48007,-1.31219 -0.48007,-2.49637 0,-0.6721 0.22403,-0.89613 0.096,-0.096 0.43206,-0.32005 2.6884,-1.66424 2.6884,-3.15246 0,-0.78411 -0.6881,-0.78411 -0.73611,0 -1.90428,1.42421 -1.15217,1.4082 -2.09631,3.4565 -0.56008,1.29619 -0.96014,1.64824 -0.36806,0.32005 -1.13617,0.32005 -0.84812,0 -1.47221,-0.46407 -0.62409,-0.48007 -0.97615,-1.34419 -0.33605,-0.88013 -0.33605,-2.0003 0,-1.72825 0.43207,-3.77655 0.43206,-2.0483 1.20017,-4.1126 0.78412,-2.06431 1.85628,-4.03259 1.07215,-1.96829 2.24032,-3.47251 2.30434,-2.91243 4.49666,-2.91243 1.08816,0 1.93629,0.49607 0.86412,0.49608 1.32819,1.40821 0.46407,0.91213 0.46407,2.12831 0,1.48822 -0.73611,2.97644 -0.73611,1.47221 -1.92028,2.41635 -1.16817,0.92814 -2.35235,0.92814 -0.56008,0 -0.56008,-0.40006 0,-0.16002 0.28804,-0.75211 1.40821,-2.78441 1.40821,-6.32093 0,-0.91213 -0.22403,-0.91213 -0.16003,0 -0.49607,0.46407 -0.32005,0.46407 -0.6241,1.13616 -1.76025,3.95258 -2.54437,9.10534 -0.048,0.27204 -0.11201,0.7201 -0.048,0.44807 -0.12802,1.02415 l 0.064,0.064 q 0.65609,-0.92813 1.07215,-1.3762 0.43207,-0.46407 1.13617,-0.99214 2.16032,-1.69625 4.03259,-1.69625 0.96014,0 1.56823,0.56008 0.62409,0.56008 0.62409,1.44021 0,2.16032 -1.3762,4.44865 -0.38406,0.6721 -0.89613,1.3282 -0.49607,0.65609 -1.44021,1.69624 0.57608,0.97615 1.31219,1.96829 0.6561,0.86413 1.64824,1.72826 0.86413,0.7201 1.24818,1.34419 z"
           style="font-weight:bold;font-family:Forte;-inkscape-font-specification:'Forte Bold';fill:#000000"
           id="path441" /><path
           d="m 141.8101,155.35851 q 0.73611,-0.49608 1.12016,-0.99215 0.84813,-1.04015 1.3122,-2.38435 0.36805,-0.88013 0.57608,-1.96829 0.20803,-1.08816 0.20803,-2.03229 0,-0.88013 -0.36805,-0.88013 -0.51208,0 -1.56823,2.25633 -0.62409,1.3602 -1.02415,2.7204 -0.38406,1.34419 -0.38406,2.32034 0,0.33605 0.12802,0.96014 z m 0.032,0.51207 q 0.17603,0.96014 1.24819,0.96014 1.20017,0 3.12045,-1.4082 1.12017,-0.81612 1.50422,-0.81612 0.48007,0 0.89614,0.25603 0.41606,0.25604 0.41606,0.52808 0,0.28804 -0.46407,0.75211 -0.84813,0.84813 -1.95229,1.66425 -1.10416,0.80011 -2.12831,1.34419 -1.02415,0.52808 -2.0483,0.84813 -1.02415,0.30404 -1.82427,0.30404 -2.00029,0 -3.20047,-1.13617 -1.20017,-1.15216 -1.20017,-3.05644 0,-1.45622 0.62409,-3.28048 0.64009,-1.84027 1.71225,-3.44051 1.26419,-1.87227 3.10446,-3.12045 2.27233,-1.50423 4.35263,-1.50423 1.50422,0 2.35235,0.96015 0.86412,0.94413 0.86412,2.60838 0,1.29619 -0.6881,2.70439 -0.67209,1.40821 -2.00029,2.7044 -1.08816,1.08816 -2.14431,1.69625 -1.04016,0.60809 -1.82427,0.60809 -0.35205,0 -0.72011,-0.17603 z"
           style="font-weight:bold;font-family:Forte;-inkscape-font-specification:'Forte Bold';fill:#000000"
           id="path443" /><path
           d="m 153.31579,144.86097 0.064,-0.19203 q 1.05615,-2.97644 1.82427,-4.19261 0.36805,-0.57609 1.02415,-1.02415 1.23218,-0.78412 2.32034,-0.78412 0.64009,0 0.97614,0.28804 0.33605,0.28805 0.33605,0.83213 0,0.36805 -0.48007,1.50422 -0.81612,1.88827 -1.21618,3.53651 0.27204,0.032 0.52808,0.096 0.96014,0.14402 1.26418,0.33605 0.30405,0.17602 0.30405,0.65609 0,0.84813 -0.43207,1.56823 -0.43206,0.72011 -1.13616,1.05616 -0.52808,0.24003 -1.71225,0.32004 -0.20803,0.6241 -0.46407,1.71226 -0.14402,0.96014 -0.32005,2.65638 -0.096,0.6241 -0.096,1.16818 0,2.52837 2.44836,2.52837 h 0.096 0.048 q 0.28804,0 0.28804,0.096 0,0.25604 -0.54408,0.86413 -0.54408,0.60809 -1.20018,1.07215 -0.7041,0.48007 -1.53622,0.76812 -0.83212,0.28804 -1.50422,0.28804 -1.68025,0 -2.7364,-1.13617 -1.04015,-1.13616 -1.04015,-3.00844 0,-0.80012 0.27203,-2.09631 0.28805,-1.29619 0.88013,-3.4725 0.096,-0.38406 0.20803,-0.80012 0.11202,-0.43206 0.12802,-0.51208 -0.64009,-0.016 -0.91213,-0.27204 -0.27204,-0.25603 -0.27204,-0.83212 0,-1.00815 0.76811,-1.90428 0.78412,-0.89613 1.82427,-1.12016 z"
           style="font-weight:bold;font-family:Forte;-inkscape-font-specification:'Forte Bold';fill:#000000"
           id="path445" /></g></g></g></svg>
